<?xml version="1.0" encoding="utf-8"?>
<!-- Generator: Adobe Illustrator 25.0.1, SVG Export Plug-In . SVG Version: 6.00 Build 0)  -->
<svg version="1.1" id="Layer_1" xmlns="http://www.w3.org/2000/svg" xmlns:xlink="http://www.w3.org/1999/xlink" x="0px" y="0px"
	 viewBox="0 0 572.86 247.45" style="enable-background:new 0 0 572.86 247.45;" xml:space="preserve">
<style type="text/css">
	.st0{fill:#FFFFFF;}
	.st1{fill:#12306B;}
	.st2{fill:#FF0000;}
</style>
<g>
	<g>
		<path class="st1" d="M30.34,240.53H19.67V128.27c3.17-1.09,7.22-2.13,12.14-3.11c4.92-0.99,11.16-1.48,18.71-1.48
			c6.23,0,11.9,1.02,16.98,3.04c5.09,2.02,9.46,4.95,13.13,8.78c3.66,3.83,6.51,8.48,8.53,13.94c2.02,5.47,3.04,11.65,3.04,18.55
			c0,6.46-0.85,12.39-2.55,17.8c-1.7,5.42-4.19,10.07-7.46,13.95c-3.29,3.88-7.31,6.92-12.06,9.1c-4.76,2.19-10.21,3.29-16.34,3.29
			c-5.58,0-10.42-0.79-14.52-2.38c-4.1-1.59-7.09-3.09-8.95-4.51V240.53z M30.34,194.9c0.98,0.76,2.21,1.59,3.7,2.46
			c1.47,0.88,3.2,1.7,5.17,2.47c1.97,0.76,4.1,1.39,6.4,1.88c2.29,0.49,4.7,0.74,7.22,0.74c5.25,0,9.66-0.9,13.22-2.7
			c3.56-1.81,6.42-4.27,8.61-7.39c2.19-3.11,3.78-6.78,4.76-10.99c0.99-4.21,1.48-8.67,1.48-13.37c0-11.16-2.79-19.72-8.37-25.68
			c-5.58-5.96-12.96-8.95-22.15-8.95c-5.25,0-9.5,0.25-12.72,0.74s-5.66,1.02-7.3,1.56V194.9z"/>
		<path class="st1" d="M131.93,123.67c3.5,0,6.81,0.28,9.93,0.82c3.11,0.55,5.28,1.1,6.48,1.65l-2.13,9.18
			c-0.88-0.43-2.65-0.9-5.33-1.39c-2.69-0.49-6.21-0.74-10.59-0.74c-4.6,0-8.29,0.33-11.08,0.98c-2.79,0.66-4.63,1.2-5.51,1.65
			v74.34h-10.67v-80.91c2.74-1.2,6.51-2.43,11.33-3.69C119.18,124.31,125.04,123.67,131.93,123.67z"/>
		<path class="st1" d="M224.48,167.83c0,6.67-0.96,12.75-2.87,18.21c-1.92,5.47-4.6,10.13-8.05,13.95
			c-3.45,3.83-7.52,6.81-12.22,8.95c-4.71,2.13-9.91,3.2-15.59,3.2c-5.69,0-10.89-1.07-15.59-3.2c-4.7-2.14-8.78-5.12-12.22-8.95
			c-3.45-3.83-6.13-8.48-8.05-13.95c-1.92-5.46-2.88-11.54-2.88-18.21c0-6.68,0.96-12.75,2.88-18.22c1.92-5.46,4.6-10.14,8.05-14.03
			c3.44-3.88,7.52-6.9,12.22-9.03c4.7-2.14,9.9-3.2,15.59-3.2c5.69,0,10.88,1.07,15.59,3.2c4.7,2.13,8.77,5.15,12.22,9.03
			c3.45,3.88,6.13,8.56,8.05,14.03C223.52,155.08,224.48,161.15,224.48,167.83z M213.16,167.83c0-10.61-2.46-19.07-7.38-25.36
			s-11.6-9.44-20.02-9.44c-8.43,0-15.1,3.15-20.02,9.44s-7.38,14.75-7.38,25.36s2.46,19.03,7.38,25.27
			c4.92,6.24,11.59,9.36,20.02,9.36c8.42,0,15.1-3.11,20.02-9.36C210.7,186.86,213.16,178.44,213.16,167.83z"/>
		<path class="st1" d="M245.98,240.53h-10.67V128.27c3.17-1.09,7.22-2.13,12.14-3.11c4.92-0.99,11.16-1.48,18.71-1.48
			c6.23,0,11.9,1.02,16.98,3.04c5.09,2.02,9.46,4.95,13.13,8.78c3.66,3.83,6.51,8.48,8.53,13.94c2.02,5.47,3.04,11.65,3.04,18.55
			c0,6.46-0.85,12.39-2.55,17.8s-4.19,10.07-7.46,13.95c-3.29,3.88-7.31,6.92-12.06,9.1c-4.76,2.19-10.21,3.29-16.34,3.29
			c-5.58,0-10.42-0.79-14.52-2.38c-4.1-1.59-7.09-3.09-8.95-4.51V240.53z M245.98,194.9c0.98,0.76,2.21,1.59,3.7,2.46
			c1.47,0.88,3.2,1.7,5.17,2.47c1.97,0.76,4.1,1.39,6.4,1.88c2.29,0.49,4.7,0.74,7.22,0.74c5.25,0,9.66-0.9,13.22-2.7
			c3.56-1.81,6.42-4.27,8.61-7.39c2.19-3.11,3.78-6.78,4.76-10.99c0.99-4.21,1.48-8.67,1.48-13.37c0-11.16-2.79-19.72-8.37-25.68
			c-5.58-5.96-12.96-8.95-22.15-8.95c-5.25,0-9.5,0.25-12.72,0.74c-3.23,0.49-5.66,1.02-7.3,1.56V194.9z"/>
		<path class="st1" d="M313.6,167.66c0-7.44,1.07-13.93,3.2-19.45c2.13-5.52,4.92-10.15,8.37-13.87c3.45-3.72,7.39-6.48,11.81-8.28
			c4.43-1.81,9-2.71,13.71-2.71c10.39,0,18.68,3.39,24.87,10.18c6.18,6.78,9.27,17.23,9.27,31.35c0,0.88-0.02,1.75-0.08,2.63
			c-0.06,0.88-0.14,1.7-0.25,2.46h-59.57c0.33,10.4,2.9,18.39,7.72,23.96c4.81,5.58,12.47,8.37,22.97,8.37
			c5.79,0,10.39-0.54,13.78-1.64c3.39-1.09,5.86-2.02,7.39-2.79l1.97,9.19c-1.53,0.88-4.41,1.92-8.62,3.12
			c-4.21,1.2-9.16,1.8-14.85,1.8c-7.44,0-13.79-1.1-19.04-3.29s-9.57-5.25-12.96-9.18c-3.39-3.94-5.86-8.62-7.39-14.03
			C314.36,180.05,313.6,174.12,313.6,167.66z M373.82,160.93c-0.22-8.86-2.29-15.76-6.23-20.68s-9.52-7.38-16.74-7.38
			c-3.83,0-7.25,0.77-10.26,2.29c-3.01,1.54-5.64,3.59-7.87,6.16c-2.24,2.57-4,5.55-5.25,8.94c-1.26,3.39-2,6.96-2.22,10.67H373.82z
			"/>
		<path class="st1" d="M425.19,123.67c3.5,0,6.81,0.28,9.93,0.82c3.12,0.55,5.28,1.1,6.48,1.65l-2.13,9.18
			c-0.88-0.43-2.65-0.9-5.33-1.39c-2.68-0.49-6.21-0.74-10.59-0.74c-4.6,0-8.29,0.33-11.08,0.98c-2.79,0.66-4.63,1.2-5.5,1.65v74.34
			h-10.67v-80.91c2.73-1.2,6.51-2.43,11.32-3.69C412.45,124.31,418.3,123.67,425.19,123.67z"/>
		<path class="st1" d="M455.39,125.32h33.8v9.02h-33.8v45.14c0,4.82,0.41,8.73,1.23,11.73c0.82,3.02,1.99,5.33,3.53,6.97
			c1.52,1.65,3.38,2.74,5.58,3.29c2.19,0.55,4.59,0.82,7.22,0.82c4.48,0,8.09-0.52,10.83-1.56c2.74-1.04,4.87-2,6.4-2.88l2.63,8.86
			c-1.53,0.98-4.22,2.11-8.05,3.37c-3.83,1.25-7.99,1.88-12.47,1.88c-5.25,0-9.66-0.68-13.22-2.05s-6.4-3.45-8.53-6.23
			c-2.14-2.79-3.64-6.27-4.51-10.42c-0.88-4.16-1.31-9.09-1.31-14.77v-78.12l10.67-1.97V125.32z"/>
		<path class="st1" d="M519.72,211.97c-3.56-6.69-7.02-13.65-10.37-20.86c-3.34-7.22-6.48-14.52-9.39-21.9
			c-2.91-7.38-5.57-14.76-7.99-22.15c-2.42-7.37-4.49-14.63-6.22-21.74h11.32c1.2,5.25,2.73,10.91,4.59,16.98s3.96,12.34,6.31,18.79
			c2.35,6.46,4.94,13.08,7.78,19.86c2.84,6.79,5.94,13.46,9.3,20.02c2.43-6.76,4.6-13.14,6.47-19.16
			c1.88-6.01,3.62-11.99,5.23-17.96c1.61-5.96,3.15-12.05,4.65-18.29c1.49-6.23,3.02-12.98,4.57-20.25h10.68
			c-3.56,15.88-7.57,31.31-12.01,46.31c-4.44,15.01-9.29,28.72-14.56,41.15c-2.08,4.92-4.22,9.17-6.42,12.72
			c-2.2,3.55-4.64,6.48-7.33,8.77c-2.69,2.3-5.82,4-9.39,5.09c-3.57,1.1-7.78,1.65-12.61,1.65c-2.74,0-5.24-0.33-7.5-0.99
			c-2.25-0.66-3.65-1.15-4.2-1.47l2.13-8.86c0.44,0.34,1.68,0.79,3.7,1.4c2.03,0.6,4.15,0.9,6.33,0.9c3.07,0,5.84-0.33,8.32-0.98
			c2.47-0.66,4.69-1.78,6.66-3.37c1.97-1.59,3.75-3.64,5.34-6.15C516.7,218.98,518.24,215.8,519.72,211.97z"/>
		<polygon class="st2" points="540.72,190.74 564.72,190.74 564.72,212.47 		"/>
	</g>
	<g>
		<path class="st1" d="M92.87,30.51c4.16-1.2,9.52-2.33,16.09-3.37c6.56-1.04,13.45-1.56,20.67-1.56c7.33,0,13.44,0.96,18.3,2.87
			c4.87,1.92,8.73,4.63,11.57,8.13c2.84,3.51,4.87,7.66,6.07,12.47c1.2,4.82,1.81,10.18,1.81,16.08v48.75h-24.46V68.09
			c0-7.87-1.04-13.46-3.12-16.74c-2.07-3.29-5.96-4.92-11.65-4.92c-1.75,0-3.61,0.08-5.58,0.25s-3.72,0.35-5.25,0.57v66.63H92.87
			V30.51z"/>
		<path class="st1" d="M173.13,71.38c0-7.66,1.17-14.36,3.52-20.11c2.35-5.74,5.44-10.53,9.27-14.36c3.83-3.83,8.23-6.73,13.22-8.7
			c4.97-1.97,10.09-2.95,15.35-2.95c12.25,0,21.93,3.74,29.04,11.24c7.11,7.5,10.67,18.52,10.67,33.07c0,1.43-0.06,2.98-0.16,4.68
			c-0.11,1.7-0.22,3.2-0.33,4.51h-55.47c0.55,5.03,2.9,9.03,7.06,11.98c4.15,2.96,9.73,4.43,16.74,4.43c4.48,0,8.89-0.41,13.21-1.23
			c4.33-0.82,7.86-1.84,10.59-3.04l3.28,19.86c-1.31,0.66-3.06,1.31-5.25,1.97c-2.19,0.66-4.62,1.23-7.3,1.72
			c-2.69,0.49-5.55,0.9-8.62,1.23c-3.06,0.33-6.13,0.49-9.19,0.49c-7.77,0-14.52-1.15-20.27-3.44c-5.74-2.3-10.5-5.45-14.27-9.44
			c-3.78-4-6.56-8.73-8.37-14.2C174.03,83.63,173.13,77.72,173.13,71.38z M230.57,62.02c-0.11-2.08-0.47-4.1-1.07-6.07
			c-0.6-1.97-1.53-3.72-2.79-5.25c-1.26-1.53-2.85-2.79-4.76-3.78c-1.92-0.98-4.29-1.47-7.14-1.47c-2.74,0-5.09,0.47-7.06,1.39
			c-1.97,0.93-3.6,2.16-4.92,3.7c-1.31,1.53-2.33,3.31-3.03,5.33c-0.71,2.02-1.23,4.07-1.56,6.15H230.57z"/>
		<path class="st1" d="M291.78,25.26c7.23,0,13.24,0.82,18.06,2.46c4.81,1.65,8.67,4,11.57,7.06c2.9,3.06,4.95,6.78,6.15,11.16
			c1.2,4.38,1.81,9.24,1.81,14.61v50.87c-3.51,0.77-8.37,1.67-14.61,2.71s-13.79,1.56-22.65,1.56c-5.58,0-10.63-0.49-15.17-1.47
			c-4.55-0.98-8.46-2.6-11.74-4.84c-3.28-2.24-5.8-5.17-7.55-8.78c-1.75-3.6-2.63-8.04-2.63-13.29c0-5.03,1.02-9.3,3.04-12.81
			c2.02-3.5,4.73-6.29,8.12-8.37c3.39-2.08,7.28-3.59,11.66-4.51c4.38-0.93,8.91-1.39,13.62-1.39c3.17,0,5.99,0.13,8.46,0.41
			c2.46,0.27,4.46,0.63,5.99,1.07v-2.3c0-4.15-1.26-7.49-3.78-10.01c-2.52-2.52-6.89-3.77-13.13-3.77c-4.16,0-8.27,0.3-12.31,0.9
			s-7.55,1.45-10.5,2.54l-3.11-19.69c1.42-0.44,3.2-0.91,5.33-1.4c2.13-0.49,4.46-0.93,6.97-1.31c2.52-0.39,5.17-0.71,7.96-0.98
			C286.12,25.4,288.94,25.26,291.78,25.26z M293.76,96.81c2.4,0,4.7-0.05,6.89-0.16c2.19-0.11,3.94-0.27,5.25-0.49V77.61
			c-0.98-0.22-2.46-0.43-4.43-0.66c-1.97-0.22-3.78-0.33-5.42-0.33c-2.29,0-4.46,0.14-6.48,0.41c-2.02,0.27-3.8,0.79-5.33,1.56
			c-1.53,0.77-2.74,1.8-3.61,3.12c-0.88,1.31-1.31,2.95-1.31,4.92c0,3.83,1.29,6.48,3.86,7.96
			C285.74,96.07,289.27,96.81,293.76,96.81z"/>
		<path class="st1" d="M338.39,6.06l24.45-3.94v25.44h29.38v20.35h-29.38v30.36c0,5.15,0.91,9.25,2.71,12.31
			c1.8,3.06,5.44,4.6,10.91,4.6c2.63,0,5.33-0.25,8.13-0.74c2.79-0.49,5.33-1.17,7.63-2.05l3.45,19.03
			c-2.96,1.2-6.23,2.24-9.85,3.12c-3.61,0.88-8.05,1.31-13.3,1.31c-6.67,0-12.2-0.9-16.57-2.7c-4.38-1.81-7.87-4.33-10.5-7.55
			c-2.62-3.23-4.46-7.14-5.5-11.73c-1.04-4.6-1.56-9.68-1.56-15.26V6.06z"/>
		<polygon class="st2" points="61.78,25.26 85.79,25.26 85.79,47 		"/>
		<path class="st1" d="M86.97,89.91c0,8.14-3.02,14.51-9.06,19.21c-4.95,3.94-11.66,6.21-19.8,6.88c-1.59,0.08-3.27,0.17-4.95,0.17
			H19.37l4.28-4.28l1.01-0.92l1.09-1.17L39,96.46h13.41c6.96-0.17,10.4-2.27,10.4-6.38c0-1.01-0.17-1.85-0.42-2.6
			c-0.34-0.75-1.01-1.51-2.01-2.26c-1.01-0.67-2.35-1.43-4.03-2.27c-1.68-0.84-3.86-1.76-6.46-2.68c-5.37-2.01-9.82-4.03-13.34-5.96
			c-3.44-1.93-6.21-3.94-8.22-6.21c-2.1-2.26-3.44-4.7-4.28-7.47c-0.84-2.68-1.26-5.87-1.26-9.48c0-8.56,3.19-14.93,9.65-19.3
			c6.38-4.36,15.44-6.54,27.1-6.54h2.27v19.97c-0.84-0.08-1.59-0.17-2.43-0.17c-4.45,0-7.63,0.42-9.48,1.34
			c-1.85,0.84-2.77,2.52-2.77,5.12c0,1.93,1.17,3.69,3.61,5.12c2.35,1.51,6.04,3.19,10.99,5.03c3.78,1.43,7.3,2.85,10.4,4.45
			c3.1,1.51,5.79,3.36,7.97,5.45c2.18,2.18,3.86,4.7,5.03,7.63C86.39,82.19,86.97,85.8,86.97,89.91z"/>
	</g>
</g>
</svg>
